<?xml version="1.0" standalone="no"?>
<!DOCTYPE svg PUBLIC "-//W3C//DTD SVG 20010904//EN"
 "http://www.w3.org/TR/2001/REC-SVG-20010904/DTD/svg10.dtd">
<svg version="1.0" xmlns="http://www.w3.org/2000/svg"
 width="460.000000pt" height="460.000000pt" viewBox="0 0 460.000000 460.000000"
 preserveAspectRatio="xMidYMid meet">
<metadata>
Created by potrace 1.14, written by Peter Selinger 2001-2017
</metadata>
<g transform="translate(0.000000,460.000000) scale(0.100000,-0.100000)"
fill="#000000" stroke="none">
<path d="M0 2300 l0 -2300 2300 0 2300 0 0 2300 0 2300 -2300 0 -2300 0 0
-2300z m2993 686 c58 -58 97 -103 112 -128 121 -201 168 -356 169 -548 0 -167
-51 -372 -92 -369 -15 1 -15 2 1 6 33 9 11 27 -34 29 -29 1 -49 -4 -59 -14
-13 -14 -12 -15 2 -9 9 3 18 1 21 -6 2 -8 28 -12 73 -12 54 0 77 5 107 23 21
12 42 22 46 22 5 0 21 -19 36 -42 15 -24 93 -107 173 -186 136 -134 142 -141
97 -121 -33 15 -50 18 -54 10 -4 -7 -29 16 -62 55 -60 73 -163 164 -185 164
-25 0 -47 -68 -40 -125 l6 -50 -16 30 c-28 53 -121 132 -219 186 -16 9 -56 30
-87 48 -67 36 -94 39 -123 11 l-22 -21 -28 38 c-40 54 -78 84 -87 70 -16 -25
-7 -164 18 -277 l6 -25 -20 25 c-10 14 -25 37 -33 52 -8 15 -35 64 -61 110
-25 46 -71 132 -102 193 -31 60 -60 113 -65 118 -9 9 -41 -51 -41 -76 0 -21
-19 -32 -33 -18 -28 28 -92 -2 -165 -78 -23 -24 -45 -41 -48 -38 -3 3 -5 23
-6 46 0 23 -4 41 -7 41 -7 0 -53 -41 -200 -177 -25 -23 -47 -40 -49 -39 -1 2
2 15 8 30 5 15 10 38 10 52 0 22 -2 24 -21 13 -23 -12 -101 -70 -123 -91 -8
-7 -24 -20 -36 -28 -12 -8 -52 -39 -89 -68 -93 -75 -116 -93 -206 -164 -44
-35 -93 -77 -110 -92 l-30 -28 -7 51 c-18 123 -94 126 -267 11 -34 -23 -64
-40 -66 -38 -3 2 26 31 62 63 81 73 90 81 136 124 l36 34 42 -29 c34 -23 52
-29 99 -29 49 0 64 5 111 38 30 21 95 78 144 128 83 83 87 89 52 75 -21 -8
-35 -11 -32 -6 9 14 -9 12 -24 -2 -11 -11 -12 -10 -6 0 6 11 -11 13 -94 10
-55 -1 -101 0 -101 4 0 3 -13 10 -28 16 -36 13 -57 73 -73 218 -21 182 11 370
89 534 31 64 96 166 126 196 12 11 41 42 65 68 25 26 59 53 75 60 24 9 168 12
619 9 323 -1 593 -6 599 -9 8 -5 9 -1 5 10 -10 25 38 -11 106 -78z m160 -1033
c-7 -2 -19 -2 -25 0 -7 3 -2 5 12 5 14 0 19 -2 13 -5z"/>
</g>
</svg>
